<mxfile host="65bd71144e" pages="2">
    <diagram id="XBa4Q_EDjiroyI0y3Vzs" name="empty">
        <mxGraphModel dx="1272" dy="948" grid="1" gridSize="10" guides="1" tooltips="1" connect="1" arrows="1" fold="1" page="1" pageScale="1" pageWidth="827" pageHeight="1169" math="0" shadow="0">
            <root>
                <mxCell id="0"/>
                <mxCell id="1" parent="0"/>
                <mxCell id="fAleqmtmpxo0EEFf1o8w-3" value="" style="rounded=1;whiteSpace=wrap;html=1;" parent="1" vertex="1">
                    <mxGeometry x="480" y="330" width="110" height="110" as="geometry"/>
                </mxCell>
                <mxCell id="fAleqmtmpxo0EEFf1o8w-4" value="" style="rounded=1;whiteSpace=wrap;html=1;" parent="1" vertex="1">
                    <mxGeometry x="616" y="330" width="110" height="110" as="geometry"/>
                </mxCell>
                <mxCell id="fAleqmtmpxo0EEFf1o8w-5" value="" style="rounded=1;whiteSpace=wrap;html=1;" parent="1" vertex="1">
                    <mxGeometry x="752" y="330" width="110" height="110" as="geometry"/>
                </mxCell>
                <mxCell id="fAleqmtmpxo0EEFf1o8w-6" value="" style="rounded=1;whiteSpace=wrap;html=1;" parent="1" vertex="1">
                    <mxGeometry x="888" y="330" width="110" height="110" as="geometry"/>
                </mxCell>
                <mxCell id="fAleqmtmpxo0EEFf1o8w-7" value="" style="rounded=1;whiteSpace=wrap;html=1;" parent="1" vertex="1">
                    <mxGeometry x="1023" y="330" width="110" height="110" as="geometry"/>
                </mxCell>
                <mxCell id="fAleqmtmpxo0EEFf1o8w-8" value="" style="rounded=1;whiteSpace=wrap;html=1;" parent="1" vertex="1">
                    <mxGeometry x="2110" y="330" width="110" height="110" as="geometry"/>
                </mxCell>
                <mxCell id="fAleqmtmpxo0EEFf1o8w-9" value="" style="rounded=1;whiteSpace=wrap;html=1;" parent="1" vertex="1">
                    <mxGeometry x="1974" y="330" width="110" height="110" as="geometry"/>
                </mxCell>
                <mxCell id="fAleqmtmpxo0EEFf1o8w-10" value="" style="rounded=1;whiteSpace=wrap;html=1;" parent="1" vertex="1">
                    <mxGeometry x="1838" y="330" width="110" height="110" as="geometry"/>
                </mxCell>
                <mxCell id="fAleqmtmpxo0EEFf1o8w-11" value="" style="rounded=1;whiteSpace=wrap;html=1;" parent="1" vertex="1">
                    <mxGeometry x="1702" y="330" width="110" height="110" as="geometry"/>
                </mxCell>
                <mxCell id="fAleqmtmpxo0EEFf1o8w-12" value="" style="rounded=1;whiteSpace=wrap;html=1;" parent="1" vertex="1">
                    <mxGeometry x="1567" y="330" width="110" height="110" as="geometry"/>
                </mxCell>
                <mxCell id="fAleqmtmpxo0EEFf1o8w-13" value="" style="rounded=1;whiteSpace=wrap;html=1;" parent="1" vertex="1">
                    <mxGeometry x="1431" y="330" width="110" height="110" as="geometry"/>
                </mxCell>
                <mxCell id="fAleqmtmpxo0EEFf1o8w-14" value="" style="rounded=1;whiteSpace=wrap;html=1;" parent="1" vertex="1">
                    <mxGeometry x="1295" y="330" width="110" height="110" as="geometry"/>
                </mxCell>
                <mxCell id="fAleqmtmpxo0EEFf1o8w-15" value="" style="rounded=1;whiteSpace=wrap;html=1;" parent="1" vertex="1">
                    <mxGeometry x="1159" y="330" width="110" height="110" as="geometry"/>
                </mxCell>
                <mxCell id="fAleqmtmpxo0EEFf1o8w-16" value="" style="rounded=1;whiteSpace=wrap;html=1;" parent="1" vertex="1">
                    <mxGeometry x="480" y="458" width="190" height="110" as="geometry"/>
                </mxCell>
                <mxCell id="fAleqmtmpxo0EEFf1o8w-17" value="" style="rounded=1;whiteSpace=wrap;html=1;" parent="1" vertex="1">
                    <mxGeometry x="480" y="585" width="220" height="110" as="geometry"/>
                </mxCell>
                <mxCell id="fAleqmtmpxo0EEFf1o8w-18" value="" style="rounded=1;whiteSpace=wrap;html=1;" parent="1" vertex="1">
                    <mxGeometry x="480" y="713" width="294" height="110" as="geometry"/>
                </mxCell>
                <mxCell id="fAleqmtmpxo0EEFf1o8w-19" value="" style="rounded=1;whiteSpace=wrap;html=1;" parent="1" vertex="1">
                    <mxGeometry x="480" y="840" width="180" height="110" as="geometry"/>
                </mxCell>
                <mxCell id="fAleqmtmpxo0EEFf1o8w-20" value="" style="rounded=1;whiteSpace=wrap;html=1;" parent="1" vertex="1">
                    <mxGeometry x="700" y="458" width="110" height="110" as="geometry"/>
                </mxCell>
                <mxCell id="fAleqmtmpxo0EEFf1o8w-22" value="" style="rounded=1;whiteSpace=wrap;html=1;" parent="1" vertex="1">
                    <mxGeometry x="800" y="713" width="110" height="110" as="geometry"/>
                </mxCell>
                <mxCell id="fAleqmtmpxo0EEFf1o8w-23" value="" style="rounded=1;whiteSpace=wrap;html=1;" parent="1" vertex="1">
                    <mxGeometry x="686" y="840" width="150" height="110" as="geometry"/>
                </mxCell>
                <mxCell id="fAleqmtmpxo0EEFf1o8w-24" value="" style="rounded=1;whiteSpace=wrap;html=1;" parent="1" vertex="1">
                    <mxGeometry x="862" y="840" width="138" height="110" as="geometry"/>
                </mxCell>
                <mxCell id="fAleqmtmpxo0EEFf1o8w-25" value="" style="rounded=1;whiteSpace=wrap;html=1;" parent="1" vertex="1">
                    <mxGeometry x="1030" y="840" width="760" height="110" as="geometry"/>
                </mxCell>
                <mxCell id="fAleqmtmpxo0EEFf1o8w-26" value="" style="rounded=1;whiteSpace=wrap;html=1;" parent="1" vertex="1">
                    <mxGeometry x="835" y="458" width="110" height="110" as="geometry"/>
                </mxCell>
                <mxCell id="fAleqmtmpxo0EEFf1o8w-27" value="" style="rounded=1;whiteSpace=wrap;html=1;" parent="1" vertex="1">
                    <mxGeometry x="971" y="458" width="110" height="110" as="geometry"/>
                </mxCell>
                <mxCell id="fAleqmtmpxo0EEFf1o8w-28" value="" style="rounded=1;whiteSpace=wrap;html=1;" parent="1" vertex="1">
                    <mxGeometry x="1106" y="458" width="110" height="110" as="geometry"/>
                </mxCell>
                <mxCell id="fAleqmtmpxo0EEFf1o8w-29" value="" style="rounded=1;whiteSpace=wrap;html=1;" parent="1" vertex="1">
                    <mxGeometry x="1242" y="458" width="110" height="110" as="geometry"/>
                </mxCell>
                <mxCell id="fAleqmtmpxo0EEFf1o8w-30" value="" style="rounded=1;whiteSpace=wrap;html=1;" parent="1" vertex="1">
                    <mxGeometry x="1377" y="458" width="110" height="110" as="geometry"/>
                </mxCell>
                <mxCell id="fAleqmtmpxo0EEFf1o8w-31" value="" style="rounded=1;whiteSpace=wrap;html=1;" parent="1" vertex="1">
                    <mxGeometry x="1513" y="458" width="110" height="110" as="geometry"/>
                </mxCell>
                <mxCell id="fAleqmtmpxo0EEFf1o8w-32" value="" style="rounded=1;whiteSpace=wrap;html=1;" parent="1" vertex="1">
                    <mxGeometry x="1648" y="458" width="110" height="110" as="geometry"/>
                </mxCell>
                <mxCell id="fAleqmtmpxo0EEFf1o8w-33" value="" style="rounded=1;whiteSpace=wrap;html=1;" parent="1" vertex="1">
                    <mxGeometry x="1784" y="458" width="110" height="110" as="geometry"/>
                </mxCell>
                <mxCell id="fAleqmtmpxo0EEFf1o8w-34" value="" style="rounded=1;whiteSpace=wrap;html=1;" parent="1" vertex="1">
                    <mxGeometry x="1919" y="458" width="110" height="110" as="geometry"/>
                </mxCell>
                <mxCell id="fAleqmtmpxo0EEFf1o8w-35" value="" style="rounded=1;whiteSpace=wrap;html=1;" parent="1" vertex="1">
                    <mxGeometry x="2055" y="458" width="110" height="110" as="geometry"/>
                </mxCell>
                <mxCell id="fAleqmtmpxo0EEFf1o8w-36" value="" style="rounded=1;whiteSpace=wrap;html=1;" parent="1" vertex="1">
                    <mxGeometry x="2190" y="458" width="110" height="110" as="geometry"/>
                </mxCell>
                <mxCell id="fAleqmtmpxo0EEFf1o8w-37" value="" style="rounded=1;whiteSpace=wrap;html=1;" parent="1" vertex="1">
                    <mxGeometry x="725" y="585" width="110" height="110" as="geometry"/>
                </mxCell>
                <mxCell id="fAleqmtmpxo0EEFf1o8w-38" value="" style="rounded=1;whiteSpace=wrap;html=1;" parent="1" vertex="1">
                    <mxGeometry x="860" y="585" width="110" height="110" as="geometry"/>
                </mxCell>
                <mxCell id="fAleqmtmpxo0EEFf1o8w-39" value="" style="rounded=1;whiteSpace=wrap;html=1;" parent="1" vertex="1">
                    <mxGeometry x="996" y="585" width="110" height="110" as="geometry"/>
                </mxCell>
                <mxCell id="fAleqmtmpxo0EEFf1o8w-40" value="" style="rounded=1;whiteSpace=wrap;html=1;" parent="1" vertex="1">
                    <mxGeometry x="1131" y="585" width="110" height="110" as="geometry"/>
                </mxCell>
                <mxCell id="fAleqmtmpxo0EEFf1o8w-41" value="" style="rounded=1;whiteSpace=wrap;html=1;" parent="1" vertex="1">
                    <mxGeometry x="1267" y="585" width="110" height="110" as="geometry"/>
                </mxCell>
                <mxCell id="fAleqmtmpxo0EEFf1o8w-42" value="" style="rounded=1;whiteSpace=wrap;html=1;" parent="1" vertex="1">
                    <mxGeometry x="1402" y="585" width="110" height="110" as="geometry"/>
                </mxCell>
                <mxCell id="fAleqmtmpxo0EEFf1o8w-43" value="" style="rounded=1;whiteSpace=wrap;html=1;" parent="1" vertex="1">
                    <mxGeometry x="1538" y="585" width="110" height="110" as="geometry"/>
                </mxCell>
                <mxCell id="fAleqmtmpxo0EEFf1o8w-44" value="" style="rounded=1;whiteSpace=wrap;html=1;" parent="1" vertex="1">
                    <mxGeometry x="1673" y="585" width="110" height="110" as="geometry"/>
                </mxCell>
                <mxCell id="fAleqmtmpxo0EEFf1o8w-45" value="" style="rounded=1;whiteSpace=wrap;html=1;" parent="1" vertex="1">
                    <mxGeometry x="1809" y="585" width="110" height="110" as="geometry"/>
                </mxCell>
                <mxCell id="fAleqmtmpxo0EEFf1o8w-46" value="" style="rounded=1;whiteSpace=wrap;html=1;" parent="1" vertex="1">
                    <mxGeometry x="1944" y="585" width="110" height="110" as="geometry"/>
                </mxCell>
                <mxCell id="fAleqmtmpxo0EEFf1o8w-47" value="" style="rounded=1;whiteSpace=wrap;html=1;" parent="1" vertex="1">
                    <mxGeometry x="2080" y="585" width="110" height="110" as="geometry"/>
                </mxCell>
                <mxCell id="fAleqmtmpxo0EEFf1o8w-48" value="" style="rounded=1;whiteSpace=wrap;html=1;" parent="1" vertex="1">
                    <mxGeometry x="937" y="713" width="110" height="110" as="geometry"/>
                </mxCell>
                <mxCell id="fAleqmtmpxo0EEFf1o8w-49" value="" style="rounded=1;whiteSpace=wrap;html=1;" parent="1" vertex="1">
                    <mxGeometry x="1073" y="713" width="110" height="110" as="geometry"/>
                </mxCell>
                <mxCell id="fAleqmtmpxo0EEFf1o8w-50" value="" style="rounded=1;whiteSpace=wrap;html=1;" parent="1" vertex="1">
                    <mxGeometry x="1210" y="713" width="110" height="110" as="geometry"/>
                </mxCell>
                <mxCell id="fAleqmtmpxo0EEFf1o8w-51" value="" style="rounded=1;whiteSpace=wrap;html=1;" parent="1" vertex="1">
                    <mxGeometry x="1347" y="713" width="110" height="110" as="geometry"/>
                </mxCell>
                <mxCell id="fAleqmtmpxo0EEFf1o8w-52" value="" style="rounded=1;whiteSpace=wrap;html=1;" parent="1" vertex="1">
                    <mxGeometry x="1483" y="713" width="110" height="110" as="geometry"/>
                </mxCell>
                <mxCell id="fAleqmtmpxo0EEFf1o8w-53" value="" style="rounded=1;whiteSpace=wrap;html=1;" parent="1" vertex="1">
                    <mxGeometry x="1620" y="713" width="110" height="110" as="geometry"/>
                </mxCell>
                <mxCell id="fAleqmtmpxo0EEFf1o8w-54" value="" style="rounded=1;whiteSpace=wrap;html=1;" parent="1" vertex="1">
                    <mxGeometry x="1757" y="713" width="110" height="110" as="geometry"/>
                </mxCell>
                <mxCell id="fAleqmtmpxo0EEFf1o8w-55" value="" style="rounded=1;whiteSpace=wrap;html=1;" parent="1" vertex="1">
                    <mxGeometry x="1893" y="713" width="110" height="110" as="geometry"/>
                </mxCell>
                <mxCell id="fAleqmtmpxo0EEFf1o8w-56" value="" style="rounded=1;whiteSpace=wrap;html=1;" parent="1" vertex="1">
                    <mxGeometry x="2030" y="713" width="110" height="110" as="geometry"/>
                </mxCell>
                <mxCell id="fAleqmtmpxo0EEFf1o8w-57" value="" style="rounded=1;whiteSpace=wrap;html=1;" parent="1" vertex="1">
                    <mxGeometry x="2250" y="330" width="240" height="110" as="geometry"/>
                </mxCell>
                <mxCell id="fAleqmtmpxo0EEFf1o8w-58" value="" style="rounded=1;whiteSpace=wrap;html=1;" parent="1" vertex="1">
                    <mxGeometry x="2330" y="458" width="160" height="110" as="geometry"/>
                </mxCell>
                <mxCell id="fAleqmtmpxo0EEFf1o8w-59" value="" style="rounded=1;whiteSpace=wrap;html=1;" parent="1" vertex="1">
                    <mxGeometry x="2220" y="585" width="270" height="110" as="geometry"/>
                </mxCell>
                <mxCell id="fAleqmtmpxo0EEFf1o8w-60" value="" style="rounded=1;whiteSpace=wrap;html=1;" parent="1" vertex="1">
                    <mxGeometry x="2160" y="713" width="330" height="110" as="geometry"/>
                </mxCell>
                <mxCell id="fAleqmtmpxo0EEFf1o8w-61" value="" style="rounded=1;whiteSpace=wrap;html=1;" parent="1" vertex="1">
                    <mxGeometry x="2320" y="840" width="170" height="110" as="geometry"/>
                </mxCell>
                <mxCell id="fAleqmtmpxo0EEFf1o8w-62" value="" style="rounded=1;whiteSpace=wrap;html=1;" parent="1" vertex="1">
                    <mxGeometry x="2160" y="840" width="130" height="110" as="geometry"/>
                </mxCell>
                <mxCell id="fAleqmtmpxo0EEFf1o8w-63" value="" style="rounded=1;whiteSpace=wrap;html=1;" parent="1" vertex="1">
                    <mxGeometry x="1980" y="840" width="150" height="110" as="geometry"/>
                </mxCell>
                <mxCell id="fAleqmtmpxo0EEFf1o8w-64" value="" style="rounded=1;whiteSpace=wrap;html=1;" parent="1" vertex="1">
                    <mxGeometry x="1812" y="840" width="138" height="110" as="geometry"/>
                </mxCell>
            </root>
        </mxGraphModel>
    </diagram>
    <diagram name="mapping" id="OuYcPLUgI0bDKEgJ8PFU">
        <mxGraphModel dx="1817" dy="1354" grid="1" gridSize="10" guides="1" tooltips="1" connect="1" arrows="1" fold="1" page="1" pageScale="1" pageWidth="827" pageHeight="1169" math="0" shadow="0">
            <root>
                <mxCell id="P27F7O3MEiWzVjYHvT8S-0"/>
                <mxCell id="P27F7O3MEiWzVjYHvT8S-1" parent="P27F7O3MEiWzVjYHvT8S-0"/>
                <mxCell id="P27F7O3MEiWzVjYHvT8S-2" value="` ~" style="rounded=1;whiteSpace=wrap;html=1;fillColor=#f5f5f5;strokeColor=#666666;fontColor=#333333;fontSize=30;fontFamily=Lucida Console;align=center;" parent="P27F7O3MEiWzVjYHvT8S-1" vertex="1">
                    <mxGeometry x="200" y="370" width="110" height="110" as="geometry"/>
                </mxCell>
                <mxCell id="P27F7O3MEiWzVjYHvT8S-3" value="&lt;div style=&quot;font-size: 30px;&quot;&gt;&lt;font style=&quot;font-size: 30px;&quot;&gt;1 !&lt;br style=&quot;font-size: 30px;&quot;&gt;&lt;/font&gt;&lt;/div&gt;&lt;div style=&quot;font-size: 30px;&quot;&gt;&lt;font style=&quot;font-size: 30px;&quot;&gt;F1&lt;/font&gt;&lt;/div&gt;" style="rounded=1;whiteSpace=wrap;html=1;fillColor=#fff2cc;strokeColor=#d6b656;fontSize=30;fontFamily=Lucida Console;align=center;" parent="P27F7O3MEiWzVjYHvT8S-1" vertex="1">
                    <mxGeometry x="336" y="370" width="110" height="110" as="geometry"/>
                </mxCell>
                <mxCell id="P27F7O3MEiWzVjYHvT8S-4" value="&lt;div&gt;2 @&lt;/div&gt;&lt;div&gt;F2&lt;br&gt;&lt;/div&gt;" style="rounded=1;whiteSpace=wrap;html=1;fillColor=#fff2cc;strokeColor=#d6b656;fontSize=30;fontFamily=Lucida Console;align=center;" parent="P27F7O3MEiWzVjYHvT8S-1" vertex="1">
                    <mxGeometry x="472" y="370" width="110" height="110" as="geometry"/>
                </mxCell>
                <mxCell id="P27F7O3MEiWzVjYHvT8S-5" value="&lt;div&gt;3 #&lt;/div&gt;&lt;div&gt;F3&lt;br&gt;&lt;/div&gt;" style="rounded=1;whiteSpace=wrap;html=1;fillColor=#fff2cc;strokeColor=#d6b656;fontSize=30;fontFamily=Lucida Console;align=center;" parent="P27F7O3MEiWzVjYHvT8S-1" vertex="1">
                    <mxGeometry x="608" y="370" width="110" height="110" as="geometry"/>
                </mxCell>
                <mxCell id="P27F7O3MEiWzVjYHvT8S-6" value="&lt;div&gt;4 $&lt;/div&gt;&lt;div&gt;F4&lt;br&gt;&lt;/div&gt;" style="rounded=1;whiteSpace=wrap;html=1;fillColor=#fff2cc;strokeColor=#d6b656;fontSize=30;fontFamily=Lucida Console;align=center;" parent="P27F7O3MEiWzVjYHvT8S-1" vertex="1">
                    <mxGeometry x="743" y="370" width="110" height="110" as="geometry"/>
                </mxCell>
                <mxCell id="P27F7O3MEiWzVjYHvT8S-7" value="&lt;div&gt;= +&lt;/div&gt;&lt;div&gt;F12&lt;br&gt;&lt;/div&gt;" style="rounded=1;whiteSpace=wrap;html=1;fillColor=#fff2cc;strokeColor=#d6b656;fontSize=30;fontFamily=Lucida Console;align=center;" parent="P27F7O3MEiWzVjYHvT8S-1" vertex="1">
                    <mxGeometry x="1830" y="370" width="110" height="110" as="geometry"/>
                </mxCell>
                <mxCell id="P27F7O3MEiWzVjYHvT8S-8" value="&lt;div&gt;- _&lt;/div&gt;&lt;div&gt;F11&lt;br&gt;&lt;/div&gt;" style="rounded=1;whiteSpace=wrap;html=1;fillColor=#fff2cc;strokeColor=#d6b656;fontSize=30;fontFamily=Lucida Console;align=center;" parent="P27F7O3MEiWzVjYHvT8S-1" vertex="1">
                    <mxGeometry x="1694" y="370" width="110" height="110" as="geometry"/>
                </mxCell>
                <mxCell id="P27F7O3MEiWzVjYHvT8S-9" value="&lt;div&gt;0 )&lt;/div&gt;&lt;div&gt;F10&lt;br&gt;&lt;/div&gt;" style="rounded=1;whiteSpace=wrap;html=1;fillColor=#fff2cc;strokeColor=#d6b656;fontSize=30;fontFamily=Lucida Console;align=center;" parent="P27F7O3MEiWzVjYHvT8S-1" vertex="1">
                    <mxGeometry x="1558" y="370" width="110" height="110" as="geometry"/>
                </mxCell>
                <mxCell id="P27F7O3MEiWzVjYHvT8S-10" value="&lt;div&gt;9 (&lt;/div&gt;&lt;div&gt;F9&lt;br&gt;&lt;/div&gt;" style="rounded=1;whiteSpace=wrap;html=1;fillColor=#fff2cc;strokeColor=#d6b656;fontSize=30;fontFamily=Lucida Console;align=center;" parent="P27F7O3MEiWzVjYHvT8S-1" vertex="1">
                    <mxGeometry x="1422" y="370" width="110" height="110" as="geometry"/>
                </mxCell>
                <mxCell id="P27F7O3MEiWzVjYHvT8S-11" value="&lt;div&gt;8 *&lt;/div&gt;&lt;div&gt;F8&lt;br&gt;&lt;/div&gt;" style="rounded=1;whiteSpace=wrap;html=1;fillColor=#fff2cc;strokeColor=#d6b656;fontSize=30;fontFamily=Lucida Console;align=center;" parent="P27F7O3MEiWzVjYHvT8S-1" vertex="1">
                    <mxGeometry x="1287" y="370" width="110" height="110" as="geometry"/>
                </mxCell>
                <mxCell id="P27F7O3MEiWzVjYHvT8S-12" value="&lt;div&gt;7 &amp;amp;&lt;/div&gt;&lt;div&gt;F7&lt;br&gt;&lt;/div&gt;" style="rounded=1;whiteSpace=wrap;html=1;fillColor=#fff2cc;strokeColor=#d6b656;fontSize=30;fontFamily=Lucida Console;align=center;" parent="P27F7O3MEiWzVjYHvT8S-1" vertex="1">
                    <mxGeometry x="1151" y="370" width="110" height="110" as="geometry"/>
                </mxCell>
                <mxCell id="P27F7O3MEiWzVjYHvT8S-13" value="&lt;div&gt;6 ^&lt;/div&gt;&lt;div&gt;F6&lt;br&gt;&lt;/div&gt;" style="rounded=1;whiteSpace=wrap;html=1;fillColor=#fff2cc;strokeColor=#d6b656;fontSize=30;fontFamily=Lucida Console;align=center;" parent="P27F7O3MEiWzVjYHvT8S-1" vertex="1">
                    <mxGeometry x="1015" y="370" width="110" height="110" as="geometry"/>
                </mxCell>
                <mxCell id="P27F7O3MEiWzVjYHvT8S-14" value="&lt;div&gt;5 %&lt;/div&gt;&lt;div&gt;F5&lt;br&gt;&lt;/div&gt;" style="rounded=1;whiteSpace=wrap;html=1;fillColor=#fff2cc;strokeColor=#d6b656;fontSize=30;fontFamily=Lucida Console;align=center;" parent="P27F7O3MEiWzVjYHvT8S-1" vertex="1">
                    <mxGeometry x="879" y="370" width="110" height="110" as="geometry"/>
                </mxCell>
                <mxCell id="P27F7O3MEiWzVjYHvT8S-15" value="Tab" style="rounded=1;whiteSpace=wrap;html=1;fillColor=#f5f5f5;strokeColor=#666666;fontColor=#333333;fontSize=30;fontFamily=Lucida Console;align=center;" parent="P27F7O3MEiWzVjYHvT8S-1" vertex="1">
                    <mxGeometry x="200" y="498" width="190" height="110" as="geometry"/>
                </mxCell>
                <mxCell id="P27F7O3MEiWzVjYHvT8S-16" value="&lt;div&gt;ESC&lt;/div&gt;&lt;div&gt;CapsLock +&lt;br&gt;&lt;/div&gt;" style="rounded=1;whiteSpace=wrap;html=1;fillColor=#dae8fc;strokeColor=#6c8ebf;fontSize=30;fontFamily=Lucida Console;align=center;" parent="P27F7O3MEiWzVjYHvT8S-1" vertex="1">
                    <mxGeometry x="200" y="625" width="220" height="110" as="geometry"/>
                </mxCell>
                <mxCell id="P27F7O3MEiWzVjYHvT8S-17" value="Shift" style="rounded=1;whiteSpace=wrap;html=1;fillColor=#f5f5f5;strokeColor=#666666;fontColor=#333333;fontSize=30;fontFamily=Lucida Console;align=center;" parent="P27F7O3MEiWzVjYHvT8S-1" vertex="1">
                    <mxGeometry x="200" y="753" width="294" height="110" as="geometry"/>
                </mxCell>
                <mxCell id="P27F7O3MEiWzVjYHvT8S-18" value="Ctrl" style="rounded=1;whiteSpace=wrap;html=1;fillColor=#f5f5f5;strokeColor=#666666;fontColor=#333333;fontSize=30;fontFamily=Lucida Console;align=center;" parent="P27F7O3MEiWzVjYHvT8S-1" vertex="1">
                    <mxGeometry x="200" y="880" width="180" height="110" as="geometry"/>
                </mxCell>
                <mxCell id="P27F7O3MEiWzVjYHvT8S-19" value="" style="rounded=1;whiteSpace=wrap;html=1;fillColor=#f5f5f5;strokeColor=#666666;fontColor=#333333;fontSize=30;fontFamily=Lucida Console;align=center;" parent="P27F7O3MEiWzVjYHvT8S-1" vertex="1">
                    <mxGeometry x="420" y="498" width="110" height="110" as="geometry"/>
                </mxCell>
                <mxCell id="P27F7O3MEiWzVjYHvT8S-20" value="" style="rounded=1;whiteSpace=wrap;html=1;fillColor=#f5f5f5;strokeColor=#666666;fontColor=#333333;fontSize=30;fontFamily=Lucida Console;align=center;" parent="P27F7O3MEiWzVjYHvT8S-1" vertex="1">
                    <mxGeometry x="520" y="753" width="110" height="110" as="geometry"/>
                </mxCell>
                <mxCell id="P27F7O3MEiWzVjYHvT8S-21" value="Win" style="rounded=1;whiteSpace=wrap;html=1;fillColor=#f5f5f5;strokeColor=#666666;fontColor=#333333;fontSize=30;fontFamily=Lucida Console;align=center;" parent="P27F7O3MEiWzVjYHvT8S-1" vertex="1">
                    <mxGeometry x="406" y="880" width="150" height="110" as="geometry"/>
                </mxCell>
                <mxCell id="P27F7O3MEiWzVjYHvT8S-22" value="Alt" style="rounded=1;whiteSpace=wrap;html=1;fillColor=#f5f5f5;strokeColor=#666666;fontColor=#333333;fontSize=30;fontFamily=Lucida Console;align=center;" parent="P27F7O3MEiWzVjYHvT8S-1" vertex="1">
                    <mxGeometry x="582" y="880" width="138" height="110" as="geometry"/>
                </mxCell>
                <mxCell id="P27F7O3MEiWzVjYHvT8S-23" value="Space" style="rounded=1;whiteSpace=wrap;html=1;fillColor=#f5f5f5;strokeColor=#666666;fontColor=#333333;fontSize=30;fontFamily=Lucida Console;align=center;" parent="P27F7O3MEiWzVjYHvT8S-1" vertex="1">
                    <mxGeometry x="750" y="880" width="760" height="110" as="geometry"/>
                </mxCell>
                <mxCell id="P27F7O3MEiWzVjYHvT8S-24" value="&lt;div&gt;vol.&lt;/div&gt;&lt;div&gt;down&lt;br&gt;&lt;/div&gt;" style="rounded=1;whiteSpace=wrap;html=1;fillColor=#e1d5e7;strokeColor=#9673a6;fontSize=30;fontFamily=Lucida Console;align=center;" parent="P27F7O3MEiWzVjYHvT8S-1" vertex="1">
                    <mxGeometry x="555" y="498" width="110" height="110" as="geometry"/>
                </mxCell>
                <mxCell id="P27F7O3MEiWzVjYHvT8S-25" value="&lt;div&gt;vol.&lt;/div&gt;&lt;div&gt;up&lt;span style=&quot;white-space: pre&quot;&gt;&lt;/span&gt;&lt;br&gt;&lt;/div&gt;" style="rounded=1;whiteSpace=wrap;html=1;fillColor=#e1d5e7;strokeColor=#9673a6;fontSize=30;fontFamily=Lucida Console;align=center;" parent="P27F7O3MEiWzVjYHvT8S-1" vertex="1">
                    <mxGeometry x="691" y="498" width="110" height="110" as="geometry"/>
                </mxCell>
                <mxCell id="P27F7O3MEiWzVjYHvT8S-26" value="&lt;div&gt;vol.&lt;/div&gt;&lt;div&gt;off&lt;br&gt;&lt;/div&gt;" style="rounded=1;whiteSpace=wrap;html=1;fillColor=#e1d5e7;strokeColor=#9673a6;fontSize=30;fontFamily=Lucida Console;align=center;" parent="P27F7O3MEiWzVjYHvT8S-1" vertex="1">
                    <mxGeometry x="826" y="498" width="110" height="110" as="geometry"/>
                </mxCell>
                <mxCell id="P27F7O3MEiWzVjYHvT8S-27" value="switch&lt;br&gt;case" style="rounded=1;whiteSpace=wrap;html=1;fillColor=#fff2cc;strokeColor=#d6b656;fontSize=30;fontFamily=Lucida Console;align=center;" parent="P27F7O3MEiWzVjYHvT8S-1" vertex="1">
                    <mxGeometry x="962" y="498" width="110" height="110" as="geometry"/>
                </mxCell>
                <mxCell id="P27F7O3MEiWzVjYHvT8S-28" value="PgUp" style="rounded=1;whiteSpace=wrap;html=1;fillColor=#d5e8d4;strokeColor=#82b366;fontSize=30;fontFamily=Lucida Console;align=center;" parent="P27F7O3MEiWzVjYHvT8S-1" vertex="1">
                    <mxGeometry x="1097" y="498" width="110" height="110" as="geometry"/>
                </mxCell>
                <mxCell id="P27F7O3MEiWzVjYHvT8S-29" value="PgDn" style="rounded=1;whiteSpace=wrap;html=1;fillColor=#d5e8d4;strokeColor=#82b366;fontSize=30;fontFamily=Lucida Console;align=center;" parent="P27F7O3MEiWzVjYHvT8S-1" vertex="1">
                    <mxGeometry x="1233" y="498" width="110" height="110" as="geometry"/>
                </mxCell>
                <mxCell id="P27F7O3MEiWzVjYHvT8S-30" value="Ins" style="rounded=1;whiteSpace=wrap;html=1;fillColor=#e1d5e7;strokeColor=#9673a6;fontSize=30;fontFamily=Lucida Console;align=center;" parent="P27F7O3MEiWzVjYHvT8S-1" vertex="1">
                    <mxGeometry x="1368" y="498" width="110" height="110" as="geometry"/>
                </mxCell>
                <mxCell id="P27F7O3MEiWzVjYHvT8S-31" value="" style="rounded=1;whiteSpace=wrap;html=1;fillColor=#f5f5f5;strokeColor=#666666;fontColor=#333333;fontSize=30;fontFamily=Lucida Console;align=center;" parent="P27F7O3MEiWzVjYHvT8S-1" vertex="1">
                    <mxGeometry x="1504" y="498" width="110" height="110" as="geometry"/>
                </mxCell>
                <mxCell id="P27F7O3MEiWzVjYHvT8S-32" value="Prt" style="rounded=1;whiteSpace=wrap;html=1;fillColor=#e1d5e7;strokeColor=#9673a6;fontSize=30;fontFamily=Lucida Console;align=center;" parent="P27F7O3MEiWzVjYHvT8S-1" vertex="1">
                    <mxGeometry x="1639" y="498" width="110" height="110" as="geometry"/>
                </mxCell>
                <mxCell id="P27F7O3MEiWzVjYHvT8S-33" value="[ {" style="rounded=1;whiteSpace=wrap;html=1;fillColor=#f5f5f5;strokeColor=#666666;fontColor=#333333;fontSize=30;fontFamily=Lucida Console;align=center;" parent="P27F7O3MEiWzVjYHvT8S-1" vertex="1">
                    <mxGeometry x="1775" y="498" width="110" height="110" as="geometry"/>
                </mxCell>
                <mxCell id="P27F7O3MEiWzVjYHvT8S-34" value="] }" style="rounded=1;whiteSpace=wrap;html=1;fillColor=#f5f5f5;strokeColor=#666666;fontColor=#333333;fontSize=30;fontFamily=Lucida Console;align=center;" parent="P27F7O3MEiWzVjYHvT8S-1" vertex="1">
                    <mxGeometry x="1910" y="498" width="110" height="110" as="geometry"/>
                </mxCell>
                <mxCell id="P27F7O3MEiWzVjYHvT8S-35" value="" style="rounded=1;whiteSpace=wrap;html=1;fillColor=#f5f5f5;strokeColor=#666666;fontColor=#333333;fontSize=30;fontFamily=Lucida Console;align=center;" parent="P27F7O3MEiWzVjYHvT8S-1" vertex="1">
                    <mxGeometry x="445" y="625" width="110" height="110" as="geometry"/>
                </mxCell>
                <mxCell id="P27F7O3MEiWzVjYHvT8S-36" value="Shift" style="rounded=1;whiteSpace=wrap;html=1;fillColor=#f8cecc;strokeColor=#b85450;fontSize=30;fontFamily=Lucida Console;align=center;" parent="P27F7O3MEiWzVjYHvT8S-1" vertex="1">
                    <mxGeometry x="580" y="625" width="110" height="110" as="geometry"/>
                </mxCell>
                <mxCell id="P27F7O3MEiWzVjYHvT8S-37" value="&lt;div&gt;Ctrl&lt;/div&gt;" style="rounded=1;whiteSpace=wrap;html=1;fillColor=#f8cecc;strokeColor=#b85450;fontSize=30;fontFamily=Lucida Console;align=center;" parent="P27F7O3MEiWzVjYHvT8S-1" vertex="1">
                    <mxGeometry x="716" y="625" width="110" height="110" as="geometry"/>
                </mxCell>
                <mxCell id="P27F7O3MEiWzVjYHvT8S-38" value="&lt;div&gt;Alt&lt;/div&gt;" style="rounded=1;whiteSpace=wrap;html=1;fillColor=#f8cecc;strokeColor=#b85450;fontSize=30;fontFamily=Lucida Console;align=center;" parent="P27F7O3MEiWzVjYHvT8S-1" vertex="1">
                    <mxGeometry x="851" y="625" width="110" height="110" as="geometry"/>
                </mxCell>
                <mxCell id="P27F7O3MEiWzVjYHvT8S-39" value="&lt;div&gt;Win&lt;/div&gt;" style="rounded=1;whiteSpace=wrap;html=1;fillColor=#f8cecc;strokeColor=#b85450;fontSize=30;fontFamily=Lucida Console;align=center;" parent="P27F7O3MEiWzVjYHvT8S-1" vertex="1">
                    <mxGeometry x="987" y="625" width="110" height="110" as="geometry"/>
                </mxCell>
                <mxCell id="P27F7O3MEiWzVjYHvT8S-40" value="left" style="rounded=1;whiteSpace=wrap;html=1;fillColor=#fff2cc;strokeColor=#d6b656;fontSize=30;fontFamily=Lucida Console;align=center;" parent="P27F7O3MEiWzVjYHvT8S-1" vertex="1">
                    <mxGeometry x="1122" y="625" width="110" height="110" as="geometry"/>
                </mxCell>
                <mxCell id="P27F7O3MEiWzVjYHvT8S-41" value="down" style="rounded=1;whiteSpace=wrap;html=1;fillColor=#fff2cc;strokeColor=#d6b656;fontSize=30;fontFamily=Lucida Console;align=center;" parent="P27F7O3MEiWzVjYHvT8S-1" vertex="1">
                    <mxGeometry x="1258" y="625" width="110" height="110" as="geometry"/>
                </mxCell>
                <mxCell id="P27F7O3MEiWzVjYHvT8S-42" value="up" style="rounded=1;whiteSpace=wrap;html=1;fillColor=#fff2cc;strokeColor=#d6b656;fontSize=30;fontFamily=Lucida Console;align=center;" parent="P27F7O3MEiWzVjYHvT8S-1" vertex="1">
                    <mxGeometry x="1393" y="625" width="110" height="110" as="geometry"/>
                </mxCell>
                <mxCell id="P27F7O3MEiWzVjYHvT8S-43" value="right" style="rounded=1;whiteSpace=wrap;html=1;fillColor=#fff2cc;strokeColor=#d6b656;fontSize=30;fontFamily=Lucida Console;align=center;" parent="P27F7O3MEiWzVjYHvT8S-1" vertex="1">
                    <mxGeometry x="1529" y="625" width="110" height="110" as="geometry"/>
                </mxCell>
                <mxCell id="P27F7O3MEiWzVjYHvT8S-44" value="; :" style="rounded=1;whiteSpace=wrap;html=1;fillColor=#f5f5f5;strokeColor=#666666;fontColor=#333333;fontSize=30;fontFamily=Lucida Console;align=center;" parent="P27F7O3MEiWzVjYHvT8S-1" vertex="1">
                    <mxGeometry x="1664" y="625" width="110" height="110" as="geometry"/>
                </mxCell>
                <mxCell id="P27F7O3MEiWzVjYHvT8S-45" value="' &quot;" style="rounded=1;whiteSpace=wrap;html=1;fillColor=#f5f5f5;strokeColor=#666666;fontColor=#333333;fontSize=30;fontFamily=Lucida Console;align=center;" parent="P27F7O3MEiWzVjYHvT8S-1" vertex="1">
                    <mxGeometry x="1800" y="625" width="110" height="110" as="geometry"/>
                </mxCell>
                <mxCell id="P27F7O3MEiWzVjYHvT8S-46" value="" style="rounded=1;whiteSpace=wrap;html=1;fillColor=#f5f5f5;strokeColor=#666666;fontColor=#333333;fontSize=30;fontFamily=Lucida Console;align=center;" parent="P27F7O3MEiWzVjYHvT8S-1" vertex="1">
                    <mxGeometry x="657" y="753" width="110" height="110" as="geometry"/>
                </mxCell>
                <mxCell id="P27F7O3MEiWzVjYHvT8S-47" value="" style="rounded=1;whiteSpace=wrap;html=1;fillColor=#f5f5f5;strokeColor=#666666;fontColor=#333333;fontSize=30;fontFamily=Lucida Console;align=center;" parent="P27F7O3MEiWzVjYHvT8S-1" vertex="1">
                    <mxGeometry x="793" y="753" width="110" height="110" as="geometry"/>
                </mxCell>
                <mxCell id="P27F7O3MEiWzVjYHvT8S-48" value="" style="rounded=1;whiteSpace=wrap;html=1;fillColor=#f5f5f5;strokeColor=#666666;fontColor=#333333;fontSize=30;fontFamily=Lucida Console;align=center;" parent="P27F7O3MEiWzVjYHvT8S-1" vertex="1">
                    <mxGeometry x="930" y="753" width="110" height="110" as="geometry"/>
                </mxCell>
                <mxCell id="P27F7O3MEiWzVjYHvT8S-49" value="" style="rounded=1;whiteSpace=wrap;html=1;fillColor=#f5f5f5;strokeColor=#666666;fontColor=#333333;fontSize=30;fontFamily=Lucida Console;align=center;" parent="P27F7O3MEiWzVjYHvT8S-1" vertex="1">
                    <mxGeometry x="1067" y="753" width="110" height="110" as="geometry"/>
                </mxCell>
                <mxCell id="P27F7O3MEiWzVjYHvT8S-50" value="home" style="rounded=1;whiteSpace=wrap;html=1;fillColor=#d5e8d4;strokeColor=#82b366;fontSize=30;fontFamily=Lucida Console;align=center;" parent="P27F7O3MEiWzVjYHvT8S-1" vertex="1">
                    <mxGeometry x="1203" y="753" width="110" height="110" as="geometry"/>
                </mxCell>
                <mxCell id="P27F7O3MEiWzVjYHvT8S-51" value="end" style="rounded=1;whiteSpace=wrap;html=1;fillColor=#d5e8d4;strokeColor=#82b366;fontSize=30;fontFamily=Lucida Console;align=center;" parent="P27F7O3MEiWzVjYHvT8S-1" vertex="1">
                    <mxGeometry x="1340" y="753" width="110" height="110" as="geometry"/>
                </mxCell>
                <mxCell id="P27F7O3MEiWzVjYHvT8S-52" value="del&lt;br&gt;word&lt;br&gt;&amp;lt;-" style="rounded=1;whiteSpace=wrap;html=1;fillColor=#f8cecc;strokeColor=#b85450;fontSize=30;fontFamily=Lucida Console;align=center;" parent="P27F7O3MEiWzVjYHvT8S-1" vertex="1">
                    <mxGeometry x="1477" y="753" width="110" height="110" as="geometry"/>
                </mxCell>
                <mxCell id="P27F7O3MEiWzVjYHvT8S-53" value="del&lt;br&gt;word&lt;br&gt;-&amp;gt;" style="rounded=1;whiteSpace=wrap;html=1;fillColor=#f8cecc;strokeColor=#b85450;fontSize=30;fontFamily=Lucida Console;align=center;" parent="P27F7O3MEiWzVjYHvT8S-1" vertex="1">
                    <mxGeometry x="1613" y="753" width="110" height="110" as="geometry"/>
                </mxCell>
                <mxCell id="P27F7O3MEiWzVjYHvT8S-54" value="del&lt;br&gt;char&lt;br&gt;-&amp;gt;" style="rounded=1;whiteSpace=wrap;html=1;fillColor=#f8cecc;strokeColor=#b85450;fontSize=30;fontFamily=Lucida Console;align=center;" parent="P27F7O3MEiWzVjYHvT8S-1" vertex="1">
                    <mxGeometry x="1750" y="753" width="110" height="110" as="geometry"/>
                </mxCell>
                <mxCell id="P27F7O3MEiWzVjYHvT8S-55" value="&lt;div&gt;BackSpace&lt;/div&gt;&lt;div&gt;Del&lt;br&gt;&lt;/div&gt;" style="rounded=1;whiteSpace=wrap;html=1;fillColor=#f8cecc;strokeColor=#b85450;fontSize=30;fontFamily=Lucida Console;align=center;" parent="P27F7O3MEiWzVjYHvT8S-1" vertex="1">
                    <mxGeometry x="1970" y="370" width="240" height="110" as="geometry"/>
                </mxCell>
                <mxCell id="P27F7O3MEiWzVjYHvT8S-56" value="\ |" style="rounded=1;whiteSpace=wrap;html=1;fillColor=#f5f5f5;strokeColor=#666666;fontColor=#333333;fontSize=30;fontFamily=Lucida Console;align=center;" parent="P27F7O3MEiWzVjYHvT8S-1" vertex="1">
                    <mxGeometry x="2050" y="498" width="160" height="110" as="geometry"/>
                </mxCell>
                <mxCell id="P27F7O3MEiWzVjYHvT8S-57" value="Enter" style="rounded=1;whiteSpace=wrap;html=1;fillColor=#f8cecc;strokeColor=#b85450;fontSize=30;fontFamily=Lucida Console;align=center;" parent="P27F7O3MEiWzVjYHvT8S-1" vertex="1">
                    <mxGeometry x="1940" y="625" width="270" height="110" as="geometry"/>
                </mxCell>
                <mxCell id="P27F7O3MEiWzVjYHvT8S-58" value="Shift" style="rounded=1;whiteSpace=wrap;html=1;fillColor=#f5f5f5;strokeColor=#666666;fontColor=#333333;fontSize=30;fontFamily=Lucida Console;align=center;" parent="P27F7O3MEiWzVjYHvT8S-1" vertex="1">
                    <mxGeometry x="1880" y="753" width="330" height="110" as="geometry"/>
                </mxCell>
                <mxCell id="P27F7O3MEiWzVjYHvT8S-59" value="Ctrl" style="rounded=1;whiteSpace=wrap;html=1;fillColor=#f5f5f5;strokeColor=#666666;fontColor=#333333;fontSize=30;fontFamily=Lucida Console;align=center;" parent="P27F7O3MEiWzVjYHvT8S-1" vertex="1">
                    <mxGeometry x="2040" y="880" width="170" height="110" as="geometry"/>
                </mxCell>
                <mxCell id="P27F7O3MEiWzVjYHvT8S-60" value="&lt;div&gt;right&lt;/div&gt;&lt;div&gt;MB&lt;br&gt;&lt;/div&gt;" style="rounded=1;whiteSpace=wrap;html=1;fillColor=#f5f5f5;strokeColor=#666666;fontColor=#333333;fontSize=30;fontFamily=Lucida Console;align=center;" parent="P27F7O3MEiWzVjYHvT8S-1" vertex="1">
                    <mxGeometry x="1880" y="880" width="130" height="110" as="geometry"/>
                </mxCell>
                <mxCell id="P27F7O3MEiWzVjYHvT8S-61" value="Win" style="rounded=1;whiteSpace=wrap;html=1;fillColor=#f5f5f5;strokeColor=#666666;fontColor=#333333;fontSize=30;fontFamily=Lucida Console;align=center;" parent="P27F7O3MEiWzVjYHvT8S-1" vertex="1">
                    <mxGeometry x="1700" y="880" width="150" height="110" as="geometry"/>
                </mxCell>
                <mxCell id="P27F7O3MEiWzVjYHvT8S-62" value="Alt" style="rounded=1;whiteSpace=wrap;html=1;fillColor=#f5f5f5;strokeColor=#666666;fontColor=#333333;fontSize=30;fontFamily=Lucida Console;align=center;" parent="P27F7O3MEiWzVjYHvT8S-1" vertex="1">
                    <mxGeometry x="1532" y="880" width="138" height="110" as="geometry"/>
                </mxCell>
                <mxCell id="P27F7O3MEiWzVjYHvT8S-63" value="&lt;div&gt;Legend:&lt;/div&gt;&lt;div&gt;upper row: std fn / shift fn&lt;br&gt;&lt;/div&gt;&lt;div&gt;lower row: capslock fn&lt;br&gt;&lt;/div&gt;" style="rounded=1;whiteSpace=wrap;html=1;fillColor=#f5f5f5;strokeColor=#666666;fontColor=#333333;fontSize=30;fontFamily=Lucida Console;align=left;spacingLeft=24;" parent="P27F7O3MEiWzVjYHvT8S-1" vertex="1">
                    <mxGeometry x="200" y="120" width="560" height="170" as="geometry"/>
                </mxCell>
            </root>
        </mxGraphModel>
    </diagram>
</mxfile>